<svg xmlns="http://www.w3.org/2000/svg" width="159.76947021484375" height="159.61822509765625" viewBox="27.88689422607422 28.13961410522461 159.76947021484375 159.61822509765625"><title>Neo4j Graph Visualization</title><desc>Created using Neo4j (http://www.neo4j.com/)</desc><g class="layer relationships"><g class="relationship" transform="translate(158.65636569343158 84.09469421550894) rotate(494.8243889046106)"><path class="outline" fill="#A5ABB6" stroke="none" d="M 25 0.5 L 33.315389314957244 0.5 L 33.315389314957244 -0.5 L 25 -0.5 Z M 64.95210806495724 0.5 L 73.26749737991449 0.5 L 73.26749737991449 3.5 L 80.26749737991449 0 L 73.26749737991449 -3.5 L 73.26749737991449 -0.5 L 64.95210806495724 -0.5 Z"/><text text-anchor="middle" pointer-events="none" font-size="8px" fill="#000000" x="49.133748689957244" y="3" transform="rotate(180 49.133748689957244 0)" font-family="sans-serif">TAKES</text></g><g class="relationship" transform="translate(158.65636569343158 84.09469421550894) rotate(194.834951781092)"><path class="outline" fill="#A5ABB6" stroke="none" d="M 25 0.5 L 33.46942133461937 0.5 L 33.46942133461937 -0.5 L 25 -0.5 Z M 64.80926508461937 0.5 L 73.27868641923874 0.5 L 73.27868641923874 3.5 L 80.27868641923874 0 L 73.27868641923874 -3.5 L 73.27868641923874 -0.5 L 64.80926508461937 -0.5 Z"/><text text-anchor="middle" pointer-events="none" font-size="8px" fill="#000000" x="49.13934320961937" y="3" transform="rotate(180 49.13934320961937 0)" font-family="sans-serif">VISITS</text></g><g class="relationship" transform="translate(56.88689364199501 57.13961357136552) rotate(434.8243976042903)"><path class="outline" fill="#A5ABB6" stroke="none" d="M 25 0.5 L 25.475027910362662 0.5 L 25.475027910362662 -0.5 L 25 -0.5 Z M 72.81487166036266 0.5 L 73.28989957072532 0.5 L 73.28989957072532 3.5 L 80.28989957072532 0 L 73.28989957072532 -3.5 L 73.28989957072532 -0.5 L 72.81487166036266 -0.5 Z"/><text text-anchor="middle" pointer-events="none" font-size="8px" fill="#000000" x="49.14494978536266" y="3" font-family="sans-serif">PRESCR…</text></g></g><g class="layer nodes"><g class="node" transform="translate(158.65636569343158,84.09469421550894)"><circle class="outline" cx="0" cy="0" r="25" fill="#6DCE9E" stroke="#60B58B" stroke-width="2px"/><text text-anchor="middle" pointer-events="none" font-family="sans-serif" dy="1.5625" font-size="25" fill="#FFFFFF"/><text text-anchor="middle" pointer-events="none" y="5" font-size="10px" fill="#FFFFFF" font-family="sans-serif"> 9999</text></g><g class="node" transform="translate(56.88689364199501,57.13961357136552)"><circle class="outline" cx="0" cy="0" r="25" fill="#FF756E" stroke="#E06760" stroke-width="2px"/><text text-anchor="middle" pointer-events="none" font-family="sans-serif" dy="1.5625" font-size="25" fill="#FFFFFF"/><text text-anchor="middle" pointer-events="none" y="5" font-size="10px" fill="#FFFFFF" font-family="sans-serif"> 8888</text></g><g class="node" transform="translate(84.44949750260507,158.75784923818128)"><circle class="outline" cx="0" cy="0" r="25" fill="#DE9BF9" stroke="#BF85D6" stroke-width="2px"/><text text-anchor="middle" pointer-events="none" font-family="sans-serif" dy="1.5625" font-size="25" fill="#FFFFFF"/><text text-anchor="middle" pointer-events="none" y="5" font-size="10px" fill="#FFFFFF" font-family="sans-serif"> 20170515</text></g></g></svg>